<svg width="21" height="22" viewBox="0 0 21 22" fill="none" xmlns="http://www.w3.org/2000/svg">
<path d="M20.7229 15.94V19.892C20.723 20.1749 20.6158 20.4474 20.4229 20.6544C20.23 20.8615 19.9657 20.9876 19.6835 21.0074C19.1954 21.0417 18.7968 21.0588 18.4876 21.0588C8.61093 21.0588 0.605225 13.0531 0.605225 3.17646C0.605225 2.86799 0.622362 2.46936 0.656636 1.98057C0.676444 1.69831 0.80258 1.43406 1.00959 1.24115C1.21661 1.04824 1.48909 0.941034 1.77205 0.941162H5.72405C5.86268 0.941022 5.99641 0.992416 6.09927 1.08536C6.20213 1.17831 6.26677 1.30617 6.28064 1.4441C6.30597 1.70042 6.32981 1.90606 6.35217 2.06104C6.57426 3.61114 7.02945 5.11875 7.70228 6.53275C7.80846 6.75628 7.73917 7.0234 7.53799 7.16646L5.12611 8.88987C6.60108 12.3258 9.33933 15.0641 12.7753 16.539L14.4965 14.1316C14.5665 14.0329 14.6692 13.9621 14.7863 13.9316C14.9035 13.9012 15.0276 13.913 15.1369 13.9651C16.5507 14.6367 18.0579 15.0907 19.6075 15.3119C19.7624 15.3342 19.9673 15.3581 20.2222 15.3834C20.3599 15.3975 20.4875 15.4623 20.5802 15.5651C20.6729 15.6679 20.723 15.8015 20.7229 15.94Z" fill="black"/>
</svg>
